STARTFONT 2.1
COMMENT
COMMENT Converted from OpenType font "3x5pixel.ttf" by "otf2bdf 3.0".
COMMENT
FONT -FreeType-A3x5 Pixel-Medium-R-Normal--8-80-72-72-P-59-ISO10646-1
SIZE 8 72 72
FONTBOUNDINGBOX 10 11 0 0
STARTPROPERTIES 19
FOUNDRY "FreeType"
FAMILY_NAME "A3x5 Pixel"
WEIGHT_NAME "Medium"
SLANT "R"
SETWIDTH_NAME "Normal"
ADD_STYLE_NAME ""
PIXEL_SIZE 8
POINT_SIZE 80
RESOLUTION_X 72
RESOLUTION_Y 72
SPACING "P"
AVERAGE_WIDTH 59
CHARSET_REGISTRY "ISO10646"
CHARSET_ENCODING "1"
FONT_ASCENT 8
FONT_DESCENT 0
COPYRIGHT "Copyright © 2023 MetalTxus"
_OTF_FONTFILE "3x5pixel.ttf"
_OTF_PSNAME "3x5Pixel"
ENDPROPERTIES
CHARS 66
STARTCHAR 0020
ENCODING 32
SWIDTH 250 0
DWIDTH 2 0
BBX 0 0 0 0
BITMAP
ENDCHAR
STARTCHAR 0021
ENCODING 33
SWIDTH 375 0
DWIDTH 3 0
BBX 2 8 0 0
BITMAP
C0
C0
C0
C0
C0
00
C0
C0
ENDCHAR
STARTCHAR 0022
ENCODING 34
SWIDTH 875 0
DWIDTH 7 0
BBX 5 3 0 8
BITMAP
D8
D8
D8
ENDCHAR
STARTCHAR 0023
ENCODING 35
SWIDTH 1250 0
DWIDTH 10 0
BBX 8 8 0 0
BITMAP
6C
FF
FF
6C
6C
FF
FF
6C
ENDCHAR
STARTCHAR 0024
ENCODING 36
SWIDTH 1250 0
DWIDTH 10 0
BBX 8 8 0 0
BITMAP
FF
FF
D8
FF
FF
19
FF
FF
ENDCHAR
STARTCHAR 0025
ENCODING 37
SWIDTH 1250 0
DWIDTH 10 0
BBX 8 8 0 0
BITMAP
C1
C7
06
18
18
20
C1
C1
ENDCHAR
STARTCHAR 0026
ENCODING 38
SWIDTH 1250 0
DWIDTH 10 0
BBX 8 8 0 0
BITMAP
3C
3F
27
FC
FC
C3
FF
FF
ENDCHAR
STARTCHAR 0027
ENCODING 39
SWIDTH 375 0
DWIDTH 3 0
BBX 2 3 0 5
BITMAP
C0
C0
C0
ENDCHAR
STARTCHAR 0028
ENCODING 40
SWIDTH 625 0
DWIDTH 5 0
BBX 3 8 0 0
BITMAP
20
20
C0
C0
C0
C0
20
20
ENDCHAR
STARTCHAR 0029
ENCODING 41
SWIDTH 625 0
DWIDTH 5 0
BBX 3 8 0 0
BITMAP
C0
C0
20
20
20
20
C0
C0
ENDCHAR
STARTCHAR 002A
ENCODING 42
SWIDTH 750 0
DWIDTH 6 0
BBX 5 5 0 2
BITMAP
D8
D8
20
D8
D8
ENDCHAR
STARTCHAR 002B
ENCODING 43
SWIDTH 875 0
DWIDTH 7 0
BBX 5 5 0 2
BITMAP
60
60
F8
F8
60
ENDCHAR
STARTCHAR 002C
ENCODING 44
SWIDTH 375 0
DWIDTH 3 0
BBX 2 3 0 0
BITMAP
C0
C0
C0
ENDCHAR
STARTCHAR 002D
ENCODING 45
SWIDTH 875 0
DWIDTH 7 0
BBX 5 2 0 3
BITMAP
F8
F8
ENDCHAR
STARTCHAR 002E
ENCODING 46
SWIDTH 375 0
DWIDTH 3 0
BBX 2 2 0 0
BITMAP
C0
C0
ENDCHAR
STARTCHAR 002F
ENCODING 47
SWIDTH 1250 0
DWIDTH 10 0
BBX 8 8 0 0
BITMAP
01
07
06
18
18
20
C0
C0
ENDCHAR
STARTCHAR 0030
ENCODING 48
SWIDTH 750 0
DWIDTH 6 0
BBX 5 8 0 0
BITMAP
F8
F8
D8
D8
D8
D8
F8
F8
ENDCHAR
STARTCHAR 0031
ENCODING 49
SWIDTH 750 0
DWIDTH 6 0
BBX 5 8 0 0
BITMAP
20
E0
E0
20
20
20
F8
F8
ENDCHAR
STARTCHAR 0032
ENCODING 50
SWIDTH 750 0
DWIDTH 6 0
BBX 5 8 0 0
BITMAP
F8
F8
18
F8
F8
C0
F8
F8
ENDCHAR
STARTCHAR 0033
ENCODING 51
SWIDTH 750 0
DWIDTH 6 0
BBX 5 8 0 0
BITMAP
F8
F8
18
F8
F8
18
F8
F8
ENDCHAR
STARTCHAR 0034
ENCODING 52
SWIDTH 750 0
DWIDTH 6 0
BBX 5 8 0 0
BITMAP
D8
D8
D8
F8
F8
18
18
18
ENDCHAR
STARTCHAR 0035
ENCODING 53
SWIDTH 750 0
DWIDTH 6 0
BBX 5 8 0 0
BITMAP
F8
F8
C0
F8
F8
18
F8
F8
ENDCHAR
STARTCHAR 0036
ENCODING 54
SWIDTH 750 0
DWIDTH 6 0
BBX 5 8 0 0
BITMAP
F8
F8
C0
F8
F8
D8
F8
F8
ENDCHAR
STARTCHAR 0037
ENCODING 55
SWIDTH 750 0
DWIDTH 6 0
BBX 5 8 0 0
BITMAP
F8
F8
18
18
18
18
18
18
ENDCHAR
STARTCHAR 0038
ENCODING 56
SWIDTH 750 0
DWIDTH 6 0
BBX 5 8 0 0
BITMAP
F8
F8
D8
F8
F8
D8
F8
F8
ENDCHAR
STARTCHAR 0039
ENCODING 57
SWIDTH 750 0
DWIDTH 6 0
BBX 5 8 0 0
BITMAP
F8
F8
D8
F8
F8
18
F8
F8
ENDCHAR
STARTCHAR 003A
ENCODING 58
SWIDTH 375 0
DWIDTH 3 0
BBX 2 5 0 2
BITMAP
C0
C0
00
C0
C0
ENDCHAR
STARTCHAR 003B
ENCODING 59
SWIDTH 375 0
DWIDTH 3 0
BBX 2 7 0 0
BITMAP
C0
C0
00
00
C0
C0
C0
ENDCHAR
STARTCHAR 003C
ENCODING 60
SWIDTH 750 0
DWIDTH 6 0
BBX 5 8 0 0
BITMAP
18
38
20
C0
C0
20
18
18
ENDCHAR
STARTCHAR 003D
ENCODING 61
SWIDTH 875 0
DWIDTH 7 0
BBX 5 5 0 2
BITMAP
F8
F8
00
F8
F8
ENDCHAR
STARTCHAR 003E
ENCODING 62
SWIDTH 750 0
DWIDTH 6 0
BBX 5 8 0 0
BITMAP
C0
E0
20
18
18
20
C0
C0
ENDCHAR
STARTCHAR 003F
ENCODING 63
SWIDTH 1250 0
DWIDTH 10 0
BBX 8 8 0 0
BITMAP
FF
FF
C1
1F
1F
00
18
18
ENDCHAR
STARTCHAR 0040
ENCODING 64
SWIDTH 1250 0
DWIDTH 10 0
BBX 8 8 0 0
BITMAP
FF
FF
C3
DF
DF
C0
FF
FF
ENDCHAR
STARTCHAR 0041
ENCODING 65
SWIDTH 875 0
DWIDTH 7 0
BBX 5 8 0 0
BITMAP
F8
F8
D8
F8
F8
D8
D8
D8
ENDCHAR
STARTCHAR 0042
ENCODING 66
SWIDTH 1250 0
DWIDTH 10 0
BBX 8 8 0 0
BITMAP
FC
FF
C3
FC
FC
C3
FC
FC
ENDCHAR
STARTCHAR 0043
ENCODING 67
SWIDTH 1250 0
DWIDTH 10 0
BBX 8 8 0 0
BITMAP
FF
FF
C0
C0
C0
C0
FF
FF
ENDCHAR
STARTCHAR 0044
ENCODING 68
SWIDTH 875 0
DWIDTH 7 0
BBX 5 8 0 0
BITMAP
E0
E0
D8
D8
D8
D8
E0
E0
ENDCHAR
STARTCHAR 0045
ENCODING 69
SWIDTH 875 0
DWIDTH 7 0
BBX 5 8 0 0
BITMAP
F8
F8
C0
E0
E0
C0
F8
F8
ENDCHAR
STARTCHAR 0046
ENCODING 70
SWIDTH 875 0
DWIDTH 7 0
BBX 5 8 0 0
BITMAP
F8
F8
C0
E0
E0
C0
C0
C0
ENDCHAR
STARTCHAR 0047
ENCODING 71
SWIDTH 1250 0
DWIDTH 10 0
BBX 7 8 0 0
BITMAP
FE
FE
C0
DE
DE
C6
FE
FE
ENDCHAR
STARTCHAR 0048
ENCODING 72
SWIDTH 1250 0
DWIDTH 10 0
BBX 5 8 0 0
BITMAP
D8
D8
D8
F8
F8
D8
D8
D8
ENDCHAR
STARTCHAR 0049
ENCODING 73
SWIDTH 875 0
DWIDTH 7 0
BBX 5 8 0 0
BITMAP
F8
F8
60
60
60
60
F8
F8
ENDCHAR
STARTCHAR 004A
ENCODING 74
SWIDTH 1125 0
DWIDTH 9 0
BBX 5 8 0 0
BITMAP
18
18
18
18
18
18
F8
F8
ENDCHAR
STARTCHAR 004B
ENCODING 75
SWIDTH 1250 0
DWIDTH 10 0
BBX 8 8 0 0
BITMAP
C1
C7
C6
F8
F8
C6
C1
C1
ENDCHAR
STARTCHAR 004C
ENCODING 76
SWIDTH 1250 0
DWIDTH 10 0
BBX 8 8 0 0
BITMAP
C0
C0
C0
C0
C0
C0
FF
FF
ENDCHAR
STARTCHAR 004D
ENCODING 77
SWIDTH 1000 0
DWIDTH 8 0
BBX 7 8 0 0
BITMAP
C6
CE
CE
F6
F6
C6
C6
C6
ENDCHAR
STARTCHAR 004E
ENCODING 78
SWIDTH 1250 0
DWIDTH 10 0
BBX 8 8 0 0
BITMAP
C3
E3
E3
DB
DB
C7
C7
C3
ENDCHAR
STARTCHAR 004F
ENCODING 79
SWIDTH 875 0
DWIDTH 7 0
BBX 5 8 0 0
BITMAP
F8
F8
D8
D8
D8
D8
F8
F8
ENDCHAR
STARTCHAR 0050
ENCODING 80
SWIDTH 1250 0
DWIDTH 10 0
BBX 8 8 0 0
BITMAP
FF
FF
C3
FF
FF
C0
C0
C0
ENDCHAR
STARTCHAR 0051
ENCODING 81
SWIDTH 1500 0
DWIDTH 12 0
BBX 10 8 0 0
BITMAP
FF00
FF00
C300
C7C0
C7C0
C300
FF00
FF00
ENDCHAR
STARTCHAR 0052
ENCODING 82
SWIDTH 875 0
DWIDTH 7 0
BBX 5 8 0 0
BITMAP
E0
F8
D8
E0
E0
D8
D8
D8
ENDCHAR
STARTCHAR 0053
ENCODING 83
SWIDTH 875 0
DWIDTH 7 0
BBX 5 8 0 0
BITMAP
F8
F8
C0
F8
F8
18
F8
F8
ENDCHAR
STARTCHAR 0054
ENCODING 84
SWIDTH 875 0
DWIDTH 7 0
BBX 5 8 0 0
BITMAP
F8
F8
60
60
60
60
60
60
ENDCHAR
STARTCHAR 0055
ENCODING 85
SWIDTH 875 0
DWIDTH 7 0
BBX 5 8 0 0
BITMAP
D8
D8
D8
D8
D8
D8
F8
F8
ENDCHAR
STARTCHAR 0056
ENCODING 86
SWIDTH 1250 0
DWIDTH 10 0
BBX 8 8 0 0
BITMAP
C1
C1
C1
C1
C1
26
18
18
ENDCHAR
STARTCHAR 0057
ENCODING 87
SWIDTH 1250 0
DWIDTH 10 0
BBX 8 8 0 0
BITMAP
C3
C3
C3
C3
C3
DB
E7
E7
ENDCHAR
STARTCHAR 0058
ENCODING 88
SWIDTH 1250 0
DWIDTH 10 0
BBX 8 8 0 0
BITMAP
C1
E7
26
18
18
26
C1
C1
ENDCHAR
STARTCHAR 0059
ENCODING 89
SWIDTH 1250 0
DWIDTH 10 0
BBX 8 8 0 0
BITMAP
C1
C1
C1
26
26
18
18
18
ENDCHAR
STARTCHAR 005A
ENCODING 90
SWIDTH 1250 0
DWIDTH 10 0
BBX 8 8 0 0
BITMAP
FF
FF
06
18
18
60
FF
FF
ENDCHAR
STARTCHAR 005B
ENCODING 91
SWIDTH 625 0
DWIDTH 5 0
BBX 3 8 0 0
BITMAP
E0
E0
C0
C0
C0
C0
E0
E0
ENDCHAR
STARTCHAR 005C
ENCODING 92
SWIDTH 1250 0
DWIDTH 10 0
BBX 8 8 0 0
BITMAP
C0
E0
20
18
18
06
01
01
ENDCHAR
STARTCHAR 005D
ENCODING 93
SWIDTH 625 0
DWIDTH 5 0
BBX 4 8 0 0
BITMAP
F0
F0
30
30
30
30
F0
F0
ENDCHAR
STARTCHAR 005E
ENCODING 94
SWIDTH 750 0
DWIDTH 6 0
BBX 5 3 0 5
BITMAP
20
D8
D8
ENDCHAR
STARTCHAR 005F
ENCODING 95
SWIDTH 1250 0
DWIDTH 10 0
BBX 8 2 0 0
BITMAP
FF
FF
ENDCHAR
STARTCHAR 00B0
ENCODING 176
SWIDTH 375 0
DWIDTH 3 0
BBX 2 2 0 6
BITMAP
C0
C0
ENDCHAR
STARTCHAR 00BA
ENCODING 186
SWIDTH 625 0
DWIDTH 5 0
BBX 0 0 0 0
BITMAP
ENDCHAR
ENDFONT
